<svg width="32" height="32" viewBox="0 0 32 32" fill="none" xmlns="http://www.w3.org/2000/svg">
<rect width="32" height="32" rx="16" fill="#C3C3C3"/>
<path opacity="0.5" fill-rule="evenodd" clip-rule="evenodd" d="M20 12C20 14.2092 18.2091 16 16 16C13.7908 16 12 14.2092 12 12C12 9.7909 13.7908 8.00004 16 8.00004C18.2091 8.00004 20 9.7909 20 12ZM20.4459 16.9679C21.8089 15.7472 22.6666 13.9738 22.6666 12C22.6666 8.31814 19.6819 5.33337 16 5.33337C12.3181 5.33337 9.33331 8.31814 9.33331 12C9.33331 13.9738 10.191 15.7472 11.5541 16.9679C7.88607 18.652 5.33784 22.3558 5.33332 26.6553L5.33327 26.6665C5.33327 27.4029 5.93023 27.9999 6.66661 27.9999C7.40293 27.9999 7.99985 27.403 7.99994 26.6667H7.99998C7.99998 22.2484 11.5817 18.6667 16 18.6667C20.4149 18.6667 23.9946 22.243 24 26.6567C24 26.66 23.9999 26.6633 23.9999 26.6665C23.9999 27.4029 24.5969 27.9999 25.3333 27.9999C26.0696 27.9999 26.6665 27.403 26.6666 26.6667H26.6666V26.6562C26.6625 22.3563 24.1141 18.6522 20.4459 16.9679Z" fill="white"/>
</svg>
